<svg xmlns="http://www.w3.org/2000/svg" viewBox="0 0 200 200">
  <g id="fill">
    <path d="M96 92 C80 52 36 36 20 60 C8 84 40 108 92 104 Z" data-color="washCool" data-material="felt"/>
    <path d="M104 92 C120 52 164 36 180 60 C192 84 160 108 108 104 Z" data-color="washCool" data-material="felt"/>
    <path d="M92 108 C60 112 40 136 52 156 C64 172 88 152 96 120 Z" data-color="highlight" data-material="felt"/>
    <path d="M108 108 C140 112 160 136 148 156 C136 172 112 152 104 120 Z" data-color="highlight" data-material="felt"/>
    <path d="M94 68 C94 60 106 60 106 68 L106 144 C106 152 94 152 94 144 Z" data-color="ink" data-material="felt"/>
  </g>
  <g id="line">
    <path d="M96 64 C92 48 84 40 76 36" data-color="ink" data-w="0.8"/>
    <path d="M104 64 C108 48 116 40 124 36" data-color="ink" data-w="0.8"/>
  </g>
</svg>
