<svg xmlns="http://www.w3.org/2000/svg" viewBox="0 0 476 400">
  <g id="fill">
    <path d="M14 4 C140 0 330 2 462 5 C474 120 474 270 470 392 C330 398 140 397 8 394 C2 280 4 130 14 4 Z" fill="#9FB4C7" stroke="#8c9eaf" stroke-width="0.6"/>
    <path d="M8 140 C100 128 200 150 300 134 C380 124 440 140 472 132 L472 262 L8 262 Z" fill="#3F6E99" stroke="#376187" stroke-width="0.6"/>
    <path d="M8 232 C100 216 200 238 300 224 C380 214 440 228 472 222 L472 392 C330 398 140 397 8 394 Z" fill="#F6E27F" stroke="#d8c770" stroke-width="0.6"/>
    <path d="M8 232 C100 216 200 238 300 224 C380 214 440 228 472 222 L472 240 C440 246 380 232 300 242 C200 256 100 234 8 250 Z" fill="#E8C36A" stroke="#ccac5d" stroke-width="0.6"/>
    <path d="M-2 14 L58 -4 L66 18 L8 36 Z" fill="#F6E27F" stroke="#d8c770" stroke-width="0.6" fill-opacity="0.6"/>
    <path d="M420 -2 L480 14 L470 36 L412 18 Z" fill="#D9534A" stroke="#bf4941" stroke-width="0.6" fill-opacity="0.6"/>
  </g>
  <g id="line">
    <path d="M60 168 L110 166" fill="none" stroke="#F3EBDB" stroke-width="1.20" stroke-linecap="round" stroke-linejoin="round"/>
    <path d="M250 190 L320 188" fill="none" stroke="#F3EBDB" stroke-width="1.20" stroke-linecap="round" stroke-linejoin="round"/>
    <path d="M120 206 L190 204" fill="none" stroke="#F3EBDB" stroke-width="1.20" stroke-linecap="round" stroke-linejoin="round"/>
    <path d="M370 172 L420 171" fill="none" stroke="#F3EBDB" stroke-width="1.20" stroke-linecap="round" stroke-linejoin="round"/>
    <path d="M30 376 C140 373 330 377 452 375" fill="none" stroke="#E8C36A" stroke-width="1.08" stroke-linecap="round" stroke-linejoin="round" stroke-dasharray="3 2.5"/>
  </g>
</svg>
