<svg xmlns="http://www.w3.org/2000/svg" viewBox="0 0 476 400">
  <g id="fill">
    <path d="M14 4 C140 0 330 2 462 5 C474 120 474 270 470 392 C330 398 140 397 8 394 C2 280 4 130 14 4 Z" fill="#9FB4C7" stroke="#8c9eaf" stroke-width="0.6"/>
    <path d="M8 252 C140 249 330 253 470 250 L470 392 C330 398 140 397 8 394 Z" fill="#8DAF6E" stroke="#7c9a61" stroke-width="0.6"/>
    <path d="M6 246 C140 243 330 247 472 244 L472 262 C330 266 140 265 6 262 Z" fill="#C4B8A4" stroke="#aca290" stroke-width="0.6"/>
    <path d="M32 40 L168 40 L168 150 L32 150 Z" fill="#F3EBDB" stroke="#d6cfc1" stroke-width="0.6"/>
    <path d="M40 48 L160 48 L160 142 L40 142 Z" fill="#F6E27F" stroke="#d8c770" stroke-width="0.6" fill-opacity="0.6"/>
    <path d="M26 30 L174 30 L174 52 C160 62 146 48 100 56 C60 48 40 62 26 52 Z" fill="#D9534A" stroke="#bf4941" stroke-width="0.6"/>
    <path d="M-2 14 L58 -4 L66 18 L8 36 Z" fill="#F6E27F" stroke="#d8c770" stroke-width="0.6" fill-opacity="0.6"/>
    <path d="M420 -2 L480 14 L470 36 L412 18 Z" fill="#D9534A" stroke="#bf4941" stroke-width="0.6" fill-opacity="0.6"/>
  </g>
  <g id="line">
    <path d="M30 372 C140 369 330 373 452 371" fill="none" stroke="#F3EBDB" stroke-width="1.08" stroke-linecap="round" stroke-linejoin="round" stroke-dasharray="3 2.5"/>
    <path d="M100 48 L100 142 M40 95 L160 95" fill="none" stroke="#F3EBDB" stroke-width="1.32" stroke-linecap="round" stroke-linejoin="round"/>
  </g>
</svg>
