<svg xmlns="http://www.w3.org/2000/svg" viewBox="0 0 100 100">
  <g id="fill">
    <path d="M58 38 C76 38 90 50 89 64 C88 78 78 88 64 88 C50 88 38 86 30 80 C27 79 24 80 22 80 C17 84 9 89 6 93 C4 91 8 86 13 83 C8 81 3 74 6 68 C9 67 17 72 22 75 C24 75 26 74 28 72 C32 60 40 44 58 38 Z" fill="#6E9FCB" stroke="#618cb3" stroke-width="0.6"/>
    <path d="M86 70 C86 80 78 88 64 88 C50 88 38 86 30 80 C40 78 52 79 64 80 C74 80 82 76 86 70 Z" fill="#F6EEDC" stroke="#d8d1c2" stroke-width="0.6"/>
    <path d="M56 70 C50 64 44 54 40 44 C50 50 60 60 66 68 Z" fill="#6E9FCB" stroke="#618cb3" stroke-width="0.6"/>
    <path d="M62 36 C63.5 29 65 22 66 16 C66.5 13.5 65 12.5 63.5 13 C62 13.5 61 15 61 17.5 C61 23 61.5 30 62 36 Z" fill="#B9D6EA" stroke="#a3bcce" stroke-width="0.6" fill-opacity="0.6"/>
    <path d="M60 36 C57 31 55 26 56 20 C56.5 18 54.5 17.5 53.5 19 C52.5 21 52.5 25 54 29 C55.5 32 58 34.5 60 36 Z" fill="#B9D6EA" stroke="#a3bcce" stroke-width="0.6" fill-opacity="0.6"/>
    <path d="M64 36 C69 30 74 27 79 27 C81 27 81.5 29 80 30 C76 31 71 33 64 36 Z" fill="#B9D6EA" stroke="#a3bcce" stroke-width="0.6" fill-opacity="0.6"/>
  </g>
  <g id="shade">
    <path d="M22 94 C22 92.5 38 92 50 92 C62 92 80 92.5 80 94 C80 95.5 62 96 50 96 C38 96 22 95.5 22 94 Z" fill="#B9AA92" stroke="#a39680" stroke-width="0.6" fill-opacity="0.5"/>
  </g>
  <g id="line">
    <path d="M31 80 C41 78 52 79 64 80 C74 80 81 76 85 71" fill="none" stroke="#4A3B30" stroke-width="0.96" stroke-linecap="round" stroke-linejoin="round" stroke-dasharray="3 2.5"/>
  </g>
  <g id="face">
    <path d="M79 49.8 C80.2 49.8 81.2 50.8 81.2 52 C81.2 53.2 80.2 54.2 79 54.2 C77.8 54.2 76.8 53.2 76.8 52 C76.8 50.8 77.8 49.8 79 49.8 Z" fill="#3A2E24" stroke="#332820" stroke-width="0.6"/>
    <path d="M74 58 C76 58 77.5 59 77.5 60.2 C77.5 61.4 76 62.4 74 62.4 C72 62.4 70.5 61.4 70.5 60.2 C70.5 59 72 58 74 58 Z" fill="#E4867A" stroke="#c9766b" stroke-width="0.6"/>
    <path d="M79 65 C82.5 70 87.5 69.5 89.5 65.5" fill="none" stroke="#3A2E24" stroke-width="1.08" stroke-linecap="round" stroke-linejoin="round"/>
  </g>
</svg>
